<svg xmlns="http://www.w3.org/2000/svg" width="250" height="250" viewBox="0 0 250 250"><defs><style>.cls-1{fill:#e62a29;}.cls-2{fill:#e30613;}.cls-3{fill:#6f6f6e;}</style></defs><g id="logo"><rect class="cls-1" x="107" y="81.2" width="39.45" height="39.68" transform="translate(108.56 -60.01) rotate(45)"/><polygon class="cls-1" points="206.01 101.04 189.4 117.65 160.04 117.65 176.64 101.04 160.02 84.42 189.4 84.44 206.01 101.04"/><polygon class="cls-1" points="126.88 50.97 76.81 101.04 126.88 151.11 126.88 180.47 47.45 101.04 126.88 21.61 126.88 50.97"/><polygon class="cls-2" points="173.46 133.89 126.88 180.47 126.88 151.11 144.11 133.89 173.46 133.89"/><polygon class="cls-2" points="144.09 68.18 126.88 50.97 126.88 21.61 173.45 68.18 144.09 68.18"/><path class="cls-3" d="M45.84,227.93V213H35.24v14.92H30.79V195.2h4.45v13.36h10.6V195.2h4.5v32.73Z"/><path class="cls-3" d="M56.86,200.75V195H62v5.78Zm.42,27.18v-24.1h4.31v24.1Z"/><path class="cls-3" d="M82.44,227.93l-6.75-10.65-2.8,3v7.62H68.52V195.2h4.37v18.87l9.32-10.24H88l-9.42,10.24,9,13.86Z"/><path class="cls-3" d="M101,228.34a9.06,9.06,0,0,1-9.46-9.09V203.83c0-2.89,1.89-8.86,9.51-8.86a9,9,0,0,1,9.46,8.9H106c0-4-3.4-4.54-5-4.54s-5.1.59-5.1,4.59v15.33c0,4.05,3.44,4.64,5.1,4.64s5-.59,5-4.59h4.5A9,9,0,0,1,101,228.34Z"/><path class="cls-3" d="M133.68,217.46H119.76v2.07c0,2.07,1,4.5,4.78,4.5a4.35,4.35,0,0,0,4.54-4h4.5c-.64,5.18-4.08,8.35-9,8.35-5.51,0-9.14-3.44-9.14-8.86v-7.25c0-5.33,3.72-8.77,9.14-8.77s9.14,3.35,9.14,8.77Zm-4.41-5.18c0-2-1-4.5-4.73-4.5-3,0-4.78,1.65-4.78,4.5v.87h9.51Z"/><path class="cls-3" d="M153.19,227.93V212.28c0-2-.46-4.5-4.23-4.5-2.75,0-5.05,1.79-5.05,4.4v15.75h-4.36V203.87h4.36v1.33a8.58,8.58,0,0,1,5.05-1.69c5.61,0,8.54,3.3,8.54,8.77v15.65Z"/><path class="cls-3" d="M161.18,203.87h4.36V195.2h4.36v8.67h5v4.37h-5v13.4a1.72,1.72,0,0,0,1.88,2H175v4.31h-3.4c-3.4,0-6.06-1.83-6.06-6.47V208.24h-4.36Z"/><path class="cls-3" d="M187.9,208.24c-1.52,0-3.54,1.14-3.54,4.54v15.15H180V203.87h4.36V206a4.25,4.25,0,0,1,4.13-2.16h1.84v4.37Z"/><path class="cls-3" d="M211.63,227.93h-4.4V226.1c-1.06,1.42-3.36,2.24-5.56,2.24-3.86,0-8.17-2.43-8.17-8,0-4.64,3.58-7.07,8.12-7.07h5.61v-1.65c0-3-1.7-3.81-4.09-3.81-2.07,0-4,.91-4.41,3.49h-4.36c.51-5.7,5.19-7.76,8.72-7.76,4.18,0,8.54,2,8.54,7.94Zm-4.4-10.51h-5.56c-2.16,0-3.86.82-3.86,2.89,0,3,2.25,3.9,4.41,3.9a4.85,4.85,0,0,0,5-4.63Z"/><path class="cls-3" d="M217.83,195.2h4.36v26.44a1.73,1.73,0,0,0,1.89,2h1.6v4.31h-1.83c-3.31,0-6-1.83-6-6.47Z"/></g></svg>